<?xml version="1.0" standalone="no"?>
<!DOCTYPE svg PUBLIC "-//W3C//DTD SVG 20010904//EN"
 "http://www.w3.org/TR/2001/REC-SVG-20010904/DTD/svg10.dtd">
<svg version="1.0" xmlns="http://www.w3.org/2000/svg"
 width="820.000000pt" height="696.000000pt" viewBox="0 0 820.000000 696.000000"
 preserveAspectRatio="xMidYMid meet">

<g transform="translate(0.000000,696.000000) scale(0.100000,-0.100000)"
fill="#ffffff" stroke="none">
<path d="M4280 5617 l0 -945 -43 5 c-60 7 -455 -14 -612 -32 -1404 -164 -2472
-876 -3030 -2020 -306 -629 -471 -1375 -491 -2220 l-5 -230 35 110 c171 544
398 923 763 1276 601 581 1471 906 2593 970 196 11 572 7 723 -7 l67 -7 0
-848 c0 -467 3 -849 6 -849 3 0 650 471 1437 1047 788 576 1645 1202 1904
1392 366 267 470 348 460 357 -15 14 -3781 2929 -3796 2939 -8 4 -11 -267 -11
-938z"/>
</g>
</svg>
