<?xml version="1.0" standalone="no"?>
<!DOCTYPE svg PUBLIC "-//W3C//DTD SVG 20010904//EN"
 "http://www.w3.org/TR/2001/REC-SVG-20010904/DTD/svg10.dtd">
<svg version="1.0" xmlns="http://www.w3.org/2000/svg"
 width="820.000000pt" height="696.000000pt" viewBox="0 0 820.000000 696.000000"
 preserveAspectRatio="xMidYMid meet">

<g transform="translate(0.000000,696.000000) scale(0.100000,-0.100000)"
fill="#ffffff" stroke="none">
<path d="M2015 5090 c-1045 -809 -1903 -1475 -1907 -1479 -4 -3 205 -162 465
-352 259 -190 1116 -816 1904 -1392 787 -576 1434 -1047 1437 -1047 3 0 6 382
6 849 l0 848 68 7 c150 14 526 18 722 7 1487 -84 2539 -634 3093 -1616 99
-176 184 -379 263 -630 l35 -110 -5 230 c-25 1096 -301 2043 -799 2740 -209
293 -500 583 -793 793 -527 376 -1196 621 -1929 707 -156 18 -552 39 -612 32
l-43 -5 -2 945 -3 944 -1900 -1471z"/>
</g>
</svg>
